<svg height="24" viewBox="0 0 125 24" width="125" xmlns="http://www.w3.org/2000/svg"><path d="m0 24v-23.99983333h23.9361702v23.99983333zm25.2659574 0v-23.99983333h23.9361703v23.99983333zm25.2659575 0v-23.99983333h23.9361702v23.99983333zm25.2659574 0v-23.99983333h23.9361703v23.99983333zm25.2659577 0v-23.99983333h23.93617v23.99983333zm-90.7769284-12.4513854v-5.5486146h-2.9069149v12.0000833l2.9069149-.0000833v-5.5484479l3.0612533 5.5485312h3.2081117l-3.329621-6 3.329621-6.0000833-3.2081117.00008333zm24.7851562 4.7243187h4.234375l.5204455 1.7271667h3.1938165l-3.9295213-12h-3.6963098l-3.9473072 12h3.1040559zm2.1171875-6.83649997 1.3996011 4.47966667h-2.7992021zm26.7911736 8.56364997v-5.2893333l3.8754987-6.71066667h-3.4089096l-1.9020944 3.688-1.9376663-3.688h-3.4630984l3.9295213 6.71066667v5.2893333zm21.6235538-1.72715h4.234375l.5204455 1.7271667h3.1936503l-3.9293551-12h-3.6963098l-3.9473072 12h3.1040559zm2.1171875-6.83649997 1.3996011 4.47966667h-2.7992021zm23.6295708 2.11218127v-5.5486146h-2.906915v12.0000833l2.906915-.0000833v-5.5484479l3.061254 5.5485312h3.208111l-3.329621-6 3.329621-6.0000833-3.208111.00008333z" fill="#fff"/></svg>